<?xml version="1.0" encoding="UTF-8" standalone="no"?>
<!-- Created with Inkscape (http://www.inkscape.org/) -->

<svg
   xmlns:dc="http://purl.org/dc/elements/1.1/"
   xmlns:cc="http://creativecommons.org/ns#"
   xmlns:rdf="http://www.w3.org/1999/02/22-rdf-syntax-ns#"
   xmlns:svg="http://www.w3.org/2000/svg"
   xmlns="http://www.w3.org/2000/svg"
   xmlns:sodipodi="http://sodipodi.sourceforge.net/DTD/sodipodi-0.dtd"
   xmlns:inkscape="http://www.inkscape.org/namespaces/inkscape"
   width="8.5in"
   height="11in"
   viewBox="0 0 765 990"
   id="svg2"
   version="1.1"
   inkscape:version="0.91 r13725"
   sodipodi:docname="trident.svg">
  <defs
     id="defs4" />
  <sodipodi:namedview
     id="base"
     pagecolor="#ffffff"
     bordercolor="#666666"
     borderopacity="1.0"
     inkscape:pageopacity="0.0"
     inkscape:pageshadow="2"
     inkscape:zoom="1.4"
     inkscape:cx="309.7487"
     inkscape:cy="806.76501"
     inkscape:document-units="in"
     inkscape:current-layer="layer1"
     showgrid="true"
     units="in"
     inkscape:window-width="1600"
     inkscape:window-height="837"
     inkscape:window-x="-8"
     inkscape:window-y="-8"
     inkscape:window-maximized="1">
    <inkscape:grid
       type="xygrid"
       id="grid3336"
       units="in"
       spacingx="11.25"
       spacingy="11.25"
       empspacing="4"
       dotted="true" />
  </sodipodi:namedview>
  <metadata
     id="metadata7">
    <rdf:RDF>
      <cc:Work
         rdf:about="">
        <dc:format>image/svg+xml</dc:format>
        <dc:type
           rdf:resource="http://purl.org/dc/dcmitype/StillImage" />
        <dc:title></dc:title>
      </cc:Work>
    </rdf:RDF>
  </metadata>
  <g
     inkscape:label="Layer 1"
     inkscape:groupmode="layer"
     id="layer1"
     transform="translate(0,-62.362205)">
    <path
       style="color:#000000;font-style:normal;font-variant:normal;font-weight:normal;font-stretch:normal;font-size:medium;line-height:normal;font-family:sans-serif;text-indent:0;text-align:start;text-decoration:none;text-decoration-line:none;text-decoration-style:solid;text-decoration-color:#000000;letter-spacing:normal;word-spacing:normal;text-transform:none;direction:ltr;block-progression:tb;writing-mode:lr-tb;baseline-shift:baseline;text-anchor:start;white-space:normal;clip-rule:nonzero;display:inline;overflow:visible;visibility:visible;opacity:1;isolation:auto;mix-blend-mode:normal;color-interpolation:sRGB;color-interpolation-filters:linearRGB;solid-color:#000000;solid-opacity:1;fill:#000000;fill-opacity:1;fill-rule:nonzero;stroke:#000000;stroke-width:0.24604347;stroke-linecap:butt;stroke-linejoin:miter;stroke-miterlimit:4;stroke-dasharray:none;stroke-dashoffset:0;stroke-opacity:1;color-rendering:auto;image-rendering:auto;shape-rendering:auto;text-rendering:auto;enable-background:accumulate"
       d="m 185.9715,152.26698 c 0.0924,0 0.23817,0.0628 0.3762,0.17888 0.13802,0.11609 0.26911,0.28086 0.35259,0.45551 0.66547,1.39198 2.13076,4.78659 3.42686,7.87643 0.64804,1.54492 1.25389,3.01478 1.69777,4.12181 0.22194,0.55352 0.40327,1.01621 0.52864,1.35154 0.0627,0.16766 0.11133,0.30385 0.1437,0.40162 0.0161,0.049 0.0286,0.0882 0.0359,0.11554 0.007,0.0274 0.007,0.0514 0.007,0.0266 0,0.18592 -0.0419,0.30341 -0.10774,0.37831 -0.066,0.0749 -0.16683,0.12066 -0.32487,0.12498 -0.31612,0.008 -0.83366,-0.17353 -1.48428,-0.56938 -0.3567,-0.21702 -0.70422,-0.38823 -0.98438,-0.49107 -0.14008,-0.0514 -0.26271,-0.0862 -0.36747,-0.0999 -0.10474,-0.0138 -0.20304,-0.0267 -0.29153,0.0695 -0.0436,0.0474 -0.0426,0.0726 -0.0503,0.10227 -0.007,0.0297 -0.0133,0.0617 -0.019,0.0999 -0.0116,0.0768 -0.0216,0.17785 -0.0312,0.30441 -0.0192,0.25312 -0.0361,0.60839 -0.0513,1.05378 -0.0304,0.89079 -0.0535,2.14085 -0.0698,3.63575 -0.0325,2.98981 -0.0383,6.95725 -0.0206,10.97003 0.0178,4.01276 0.0587,8.0709 0.11856,11.2422 0.0299,1.58565 0.0647,2.94927 0.1037,3.97572 0.039,1.02645 0.077,1.69616 0.1319,1.96702 0.32143,1.58671 0.91071,2.59123 1.90204,2.99082 0.99133,0.39958 2.33684,0.1978 4.17822,-0.50551 3.82171,-1.45968 6.46439,-3.85118 7.21812,-6.59822 0.57063,-2.0798 0.4914,-4.08131 -0.27151,-7.1343 -2.01392,-8.05939 -2.24779,-9.25976 -2.39167,-12.30266 -0.19584,-4.14245 0.40198,-7.25535 2.40297,-12.48765 0.83895,-2.19374 1.29715,-3.35974 1.61823,-3.95738 0.16053,-0.29882 0.28453,-0.44981 0.39211,-0.5244 0.10751,-0.0746 0.20875,-0.0883 0.37053,-0.0883 0.12756,0 0.21043,0.0259 0.27818,0.0833 0.0677,0.0574 0.12973,0.15832 0.18117,0.33886 0.10289,0.3611 0.14918,1.01764 0.16168,2.07869 0.0299,2.53585 0.74506,5.54252 1.93129,8.13862 0.36952,0.80872 0.6255,1.44649 0.75855,1.92094 0.13307,0.47442 0.12914,0.77357 0.0513,0.90712 -0.0389,0.0668 -0.0939,0.10915 -0.19452,0.13609 -0.10057,0.027 -0.24474,0.031 -0.42905,0.004 -0.36865,-0.0541 -0.89374,-0.22765 -1.5705,-0.50605 l -1.50275,-0.61828 -0.19965,0.98435 c -0.19385,0.95527 0.0175,2.88424 0.47269,5.22559 0.45525,2.34135 1.16375,5.07444 2.00008,7.54814 1.5744,4.65678 2.00795,7.63594 1.56228,10.64894 -0.76949,5.20213 -4.23064,8.89654 -11.19926,11.89771 -1.36723,0.58881 -2.91482,1.30449 -3.46227,1.60316 -1.39463,0.76089 -2.41634,2.31236 -2.58516,3.93351 -0.0579,0.55555 -0.0707,0.92562 0.0123,1.25209 0.0831,0.32646 0.26076,0.58879 0.54608,0.92102 1.27721,1.48726 1.56436,2.21682 1.54944,3.93127 -0.0122,1.3995 -0.17753,1.94992 -1.18813,3.96683 -0.70883,1.41465 -1.31403,3.07547 -1.48684,4.10459 -0.0294,0.1748 -0.0491,0.55669 -0.0703,1.20489 -0.0212,0.64818 -0.0406,1.54956 -0.0584,2.71361 -0.0358,2.3281 -0.065,5.70587 -0.0883,10.19898 -0.0463,8.98624 -0.0683,22.43413 -0.0683,40.86649 l 0,53.21692 -0.73341,0.8888 c -0.36746,0.44514 -0.55213,0.64856 -0.90586,0.76771 -0.35371,0.11915 -0.90285,0.1483 -1.95592,0.18054 -0.59814,0.0183 -1.20173,0.007 -1.68906,-0.025 -0.24366,-0.0162 -0.45862,-0.0374 -0.62768,-0.0628 -0.16906,-0.0254 -0.29669,-0.0585 -0.34232,-0.0799 -0.25156,-0.11812 -0.73141,-0.51356 -1.00594,-0.8438 -0.0623,-0.0748 -0.099,-0.11909 -0.14423,-0.28054 -0.0452,-0.16144 -0.0887,-0.43629 -0.12625,-0.92156 -0.0752,-0.97056 -0.12897,-2.78018 -0.17039,-6.25717 -0.0829,-6.95396 -0.11711,-20.58271 -0.18219,-47.58525 -0.0727,-30.13999 -0.0685,-43.90859 -0.2751,-50.54108 -0.10323,-3.31626 -0.25708,-4.84883 -0.50862,-5.76888 -0.12576,-0.46001 -0.27861,-0.76688 -0.45421,-1.04878 -0.17558,-0.28189 -0.3704,-0.53798 -0.59483,-0.92102 -0.44822,-0.76497 -0.93765,-1.87786 -1.07163,-2.41643 -0.37768,-1.51812 0.11295,-3.54552 1.21277,-4.93617 0.42644,-0.53924 0.66945,-0.87708 0.78935,-1.2482 0.1199,-0.37114 0.10474,-0.74933 0.0432,-1.34154 -0.12592,-1.20908 -0.47838,-2.10459 -1.34109,-2.90305 -0.86271,-0.79845 -2.22075,-1.50988 -4.3789,-2.43142 -4.45303,-1.90146 -7.57933,-4.15252 -9.46812,-6.85321 -1.88878,-2.70069 -2.55167,-5.85266 -2.06679,-9.6046 0.13529,-1.04686 0.89248,-4.00525 1.67519,-6.51601 0.9635,-3.09063 1.66121,-5.79589 2.06371,-7.95699 0.4025,-2.16109 0.51736,-3.76894 0.28332,-4.71341 l -0.19042,-0.76826 -1.65313,0.64383 c -0.62024,0.24154 -1.10963,0.37986 -1.46117,0.41217 -0.35153,0.0323 -0.54151,-0.0383 -0.63077,-0.16999 -0.0892,-0.13165 -0.10937,-0.38707 -0.006,-0.79213 0.1037,-0.40508 0.32379,-0.94313 0.65694,-1.60984 1.07239,-2.14613 2.13935,-6.27525 2.16687,-8.41417 0.0144,-1.11448 0.0587,-1.79274 0.15909,-2.16145 0.0502,-0.18436 0.11087,-0.28496 0.17655,-0.34108 0.0657,-0.0562 0.14711,-0.0806 0.27511,-0.0806 0.16057,0 0.26695,0.0168 0.37619,0.0888 0.10925,0.072 0.23051,0.21129 0.38236,0.47941 0.30371,0.53623 0.71974,1.56792 1.45604,3.46854 1.77441,4.58021 2.40026,7.10935 2.58464,10.42785 0.20213,3.63769 -0.21482,6.60185 -1.70496,12.08824 -1.0148,3.73629 -1.20533,4.83063 -1.22097,7.00709 -0.0163,2.27149 0.0754,2.7896 0.72262,4.11958 0.69512,1.42847 2.14554,2.84558 3.85438,3.9585 1.70885,1.11291 3.67675,1.91907 5.42179,2.09035 1.0317,0.10121 1.73927,0.0369 2.27106,-0.35386 0.53179,-0.3908 0.85365,-1.08222 1.15837,-2.16534 0.42155,-1.49839 0.46576,-3.26498 0.47217,-17.64935 0.002,-4.39339 -0.0199,-8.41316 -0.0569,-11.3511 -0.0185,-1.46896 -0.0407,-2.66715 -0.0657,-3.50742 -0.0125,-0.42015 -0.0257,-0.75057 -0.0396,-0.98213 -0.007,-0.11577 -0.014,-0.20635 -0.0215,-0.27386 -0.003,-0.0337 -0.007,-0.0613 -0.0129,-0.0866 -0.002,-0.0126 -0.006,-0.025 -0.0104,-0.0395 -0.005,-0.0145 -0.007,-0.0315 -0.036,-0.0632 -0.0885,-0.0961 -0.18675,-0.0827 -0.29151,-0.069 -0.10474,0.0139 -0.2274,0.0485 -0.36747,0.0999 -0.28018,0.1029 -0.62822,0.27405 -0.9849,0.49107 -0.6425,0.39091 -1.15975,0.57425 -1.47965,0.56994 -0.15996,-0.002 -0.26344,-0.046 -0.3295,-0.11665 -0.0661,-0.0706 -0.10728,-0.18027 -0.10728,-0.35774 0,0.0278 -5e-5,0.003 0.007,-0.0233 0.007,-0.0264 0.0194,-0.0645 0.0354,-0.11221 0.0318,-0.0954 0.0799,-0.22872 0.14165,-0.3933 0.1237,-0.32914 0.30259,-0.78472 0.52196,-1.33097 0.43873,-1.0925 1.03919,-2.54768 1.68341,-4.08515 1.28844,-3.07494 2.7547,-6.48279 3.45765,-7.97921 0.0819,-0.1744 0.21112,-0.33847 0.34797,-0.45439 0.13685,-0.11593 0.28174,-0.17888 0.37415,-0.17888 z"
       id="path4189"
       inkscape:connector-curvature="0" />
  </g>
</svg>
